<?xml version="1.0" standalone="no"?>
<!DOCTYPE svg PUBLIC "-//W3C//DTD SVG 20010904//EN"
 "http://www.w3.org/TR/2001/REC-SVG-20010904/DTD/svg10.dtd">
<svg version="1.0" xmlns="http://www.w3.org/2000/svg"
 width="492.000000pt" height="491.000000pt" viewBox="0 0 492.000000 491.000000"
 preserveAspectRatio="xMidYMid meet">

<g transform="translate(0.000000,491.000000) scale(0.100000,-0.100000)"
fill="#000000" stroke="none">
<path d="M1717 3284 c-1 -1 -22 -5 -47 -7 -63 -8 -108 -17 -160 -34 -67 -21
-210 -87 -210 -95 0 -5 16 -8 35 -8 19 0 58 -11 88 -24 63 -29 116 -98 147
-192 17 -55 36 -203 39 -326 1 -25 4 -57 7 -70 2 -13 7 -36 9 -53 11 -63 63
-184 90 -212 8 -8 20 -24 27 -36 6 -12 20 -29 32 -38 12 -10 37 -31 56 -47 49
-40 118 -76 194 -102 69 -23 157 -32 178 -19 9 6 9 9 1 9 -6 0 -24 5 -40 12
-15 6 -30 12 -33 12 -9 2 -75 49 -92 67 -10 10 -34 48 -54 86 -63 120 -47 202
46 231 46 14 120 6 142 -16 7 -7 16 -12 22 -12 15 0 108 -101 201 -217 60 -76
163 -155 219 -170 77 -20 211 4 326 59 22 11 42 25 108 79 22 18 9 20 -64 10
-81 -11 -180 -6 -278 14 -78 16 -156 45 -156 58 0 5 -4 6 -8 3 -5 -3 -20 5
-34 17 -15 12 -39 31 -55 42 -33 24 -82 76 -83 90 -1 6 -7 16 -13 24 -23 27
-54 113 -52 144 3 54 25 86 64 97 20 5 43 8 51 6 77 -15 92 -20 97 -32 3 -8
10 -14 17 -14 6 0 27 -16 45 -35 49 -52 113 -79 191 -79 75 -1 113 6 154 27
l29 16 -24 5 c-113 22 -141 30 -192 56 -32 16 -77 44 -100 61 -51 39 -217 211
-217 225 0 2 -12 17 -27 33 -16 15 -67 68 -114 117 -101 104 -135 133 -204
169 -37 20 -140 54 -180 60 -40 6 -174 12 -178 9z m13 -91 c0 -27 -12 -41 -44
-53 -36 -13 -91 3 -106 31 -11 19 -13 18 55 32 11 3 37 5 58 6 29 1 37 -3 37
-16z"/>
<path d="M4115 3033 c-83 -44 -80 -42 -73 -49 3 -3 33 8 67 25 33 17 63 31 67
31 7 0 7 -2 -40 -102 -22 -49 -31 -78 -23 -78 17 0 160 80 154 86 -3 3 -32 -8
-66 -25 -33 -17 -63 -31 -65 -31 -3 0 11 35 30 78 49 105 48 102 33 102 -8 0
-45 -17 -84 -37z"/>
<path d="M2415 3039 c-4 -6 1 -17 11 -24 11 -7 32 -25 47 -39 15 -14 31 -26
36 -26 4 0 16 -8 27 -18 25 -23 131 -77 169 -87 17 -5 37 -10 45 -12 8 -3 55
-7 104 -10 64 -4 87 -2 82 6 -4 6 -18 11 -32 11 -37 0 -89 25 -152 73 -91 68
-141 93 -234 116 -101 25 -95 24 -103 10z"/>
<path d="M2605 2791 c32 -34 163 -121 183 -121 7 0 20 -4 30 -10 36 -20 176
-48 242 -48 67 0 128 11 235 41 113 32 216 -1 250 -78 8 -19 9 -19 13 4 2 13
-1 28 -7 34 -6 6 -11 19 -11 29 0 10 -5 18 -12 18 -6 0 -8 3 -5 7 4 3 -14 26
-40 50 -85 80 -173 89 -353 38 -76 -21 -117 -27 -205 -27 -102 -1 -123 3 -242
38 -13 3 -23 11 -23 17 0 6 -3 7 -7 4 -3 -4 -22 3 -42 15 l-36 21 30 -32z"/>
<path d="M4273 2770 c-25 -10 -26 -15 -13 -45 8 -18 9 -17 9 8 2 55 74 17 74
-40 0 -34 -44 -73 -81 -73 -15 0 -38 7 -51 16 -20 15 -23 23 -18 63 5 41 4 44
-9 26 -40 -54 25 -135 96 -120 35 8 80 58 80 89 0 13 -9 35 -20 48 -10 14 -16
28 -13 32 9 9 -28 6 -54 -4z"/>
<path d="M4308 2467 c-43 -6 -78 -14 -78 -20 0 -5 12 -7 28 -4 15 3 55 9 90
13 34 3 62 11 62 15 0 5 -6 8 -12 7 -7 0 -48 -6 -90 -11z"/>
<path d="M3268 2445 c-2 -2 -21 -5 -43 -8 -75 -11 -136 -31 -187 -64 -21 -12
-40 -23 -44 -23 -3 0 -18 -8 -32 -18 -33 -23 -101 -50 -144 -57 -49 -9 -45
-12 21 -20 100 -12 244 18 311 65 69 48 123 64 221 64 74 1 95 4 91 14 -2 7
-7 11 -10 8 -2 -3 -14 0 -26 6 -24 13 -36 17 -86 24 -19 2 -43 6 -52 8 -9 2
-18 3 -20 1z"/>
<path d="M3359 2290 c-26 -9 -57 -27 -70 -39 -12 -11 -26 -21 -29 -21 -13 0
-149 -137 -143 -144 3 -3 2 -6 -3 -6 -5 0 -25 -14 -44 -30 -19 -16 -48 -37
-65 -45 l-30 -15 45 5 c36 4 98 13 130 20 101 20 211 94 295 198 35 43 79 67
127 67 l33 1 -25 13 c-36 20 -164 18 -221 -4z"/>
<path d="M4334 2275 c-7 -19 -14 -41 -14 -48 0 -21 -25 -38 -44 -31 -22 8 -31
50 -17 80 6 13 7 24 2 24 -21 0 -28 -68 -11 -101 12 -21 52 -26 68 -6 6 6 14
27 19 46 10 39 32 57 57 48 18 -7 22 -57 6 -88 -7 -12 -7 -19 -1 -19 23 0 31
90 10 116 -6 8 -22 14 -36 14 -18 0 -28 -9 -39 -35z"/>
<path d="M3590 2184 c-17 -7 -33 -13 -36 -13 -3 0 -8 -2 -11 -5 -4 -3 1 -6 9
-6 28 0 103 -38 128 -65 46 -49 105 -77 157 -74 26 1 54 4 61 7 20 7 14 19
-12 26 -13 3 -37 20 -53 38 -79 90 -168 123 -243 92z"/>
<path d="M4222 2003 c-6 -32 -8 -60 -6 -62 9 -9 168 -31 174 -24 5 4 11 33 14
63 4 37 3 49 -3 35 -5 -11 -10 -33 -10 -48 -1 -31 -19 -42 -57 -33 -23 6 -25
10 -20 54 l5 47 -11 -48 c-10 -42 -14 -48 -32 -43 -12 3 -27 6 -34 6 -10 0
-12 13 -7 55 9 73 0 71 -13 -2z"/>
<path d="M1850 2033 c0 -7 10 -22 23 -35 12 -13 29 -32 37 -43 23 -31 189
-155 209 -155 5 0 14 -7 21 -15 7 -9 15 -13 18 -10 3 3 15 -1 26 -8 25 -15 85
-34 139 -42 70 -11 121 -9 262 10 90 13 238 3 280 -18 15 -7 13 -3 -6 14 -58
53 -157 85 -286 92 -105 6 -159 26 -165 62 -5 25 20 56 55 68 31 11 7 28 -37
26 -22 -1 -63 -11 -91 -22 -65 -25 -200 -30 -280 -12 -64 15 -185 69 -197 89
-6 8 -8 8 -8 -1z"/>
<path d="M4192 1783 c-12 -5 -34 -42 -52 -87 -9 -24 -6 -26 79 -54 l88 -30 11
32 c7 18 12 46 12 63 0 56 -79 100 -138 76z m83 -19 c19 -9 36 -25 39 -39 7
-26 -2 -83 -15 -90 -7 -5 -137 39 -147 49 -9 10 30 77 50 86 32 12 36 12 73
-6z"/>
<path d="M2764 1649 c22 -12 62 -43 89 -70 57 -56 111 -92 146 -97 l23 -3 -21
27 c-11 15 -21 32 -21 39 0 6 -16 25 -36 41 -20 16 -41 34 -48 39 -21 19 -65
34 -118 40 l-53 6 39 -22z"/>
<path d="M3981 1384 c0 -11 3 -14 6 -6 3 7 2 16 -1 19 -3 4 -6 -2 -5 -13z"/>
<path d="M4011 1384 c0 -11 3 -14 6 -6 3 7 2 16 -1 19 -3 4 -6 -2 -5 -13z"/>
<path d="M3793 1139 c11 -48 19 -99 15 -99 -2 0 -28 7 -57 16 -29 8 -55 13
-58 10 -3 -3 0 -8 8 -10 8 -2 37 -12 65 -21 29 -9 60 -25 69 -35 29 -32 39
-23 12 10 -17 20 -28 48 -32 85 -4 30 -12 58 -18 62 -6 4 -8 -3 -4 -18z"/>
<path d="M3590 983 c0 -4 6 -42 14 -83 8 -41 13 -76 11 -78 -2 -2 -33 17 -70
43 -36 26 -68 45 -71 42 -3 -2 30 -30 73 -60 43 -30 80 -53 82 -51 7 7 -22
184 -30 190 -5 3 -9 2 -9 -3z"/>
<path d="M3264 804 c52 -140 60 -155 81 -150 39 10 97 37 91 43 -3 3 -23 -2
-46 -11 -22 -9 -44 -16 -49 -16 -5 0 -22 32 -37 71 -15 38 -32 73 -37 76 -7 4
-8 -1 -3 -13z"/>
<path d="M3110 767 c0 -23 44 -179 48 -169 5 16 -27 154 -39 167 -5 5 -9 6 -9
2z"/>
<path d="M2568 715 c-57 -32 -56 -130 3 -160 38 -20 51 -19 83 6 38 30 49 64
36 105 -20 59 -68 78 -122 49z m87 -20 c50 -49 21 -138 -45 -138 -77 0 -99
124 -27 153 35 14 46 12 72 -15z"/>
<path d="M2852 707 c-68 -72 26 -201 104 -142 22 17 12 20 -18 4 -41 -22 -98
25 -98 80 0 32 39 71 70 71 16 0 32 -4 35 -10 3 -5 11 -10 17 -10 7 0 6 6 -2
15 -20 24 -83 19 -108 -8z"/>
<path d="M2950 639 c-25 -7 -25 -7 4 -8 24 -1 27 -4 23 -24 -4 -12 -2 -29 3
-37 7 -11 10 -3 10 27 0 48 -5 53 -40 42z"/>
</g>
</svg>
