<?xml version="1.0" standalone="no"?>
<!DOCTYPE svg PUBLIC "-//W3C//DTD SVG 20010904//EN"
 "http://www.w3.org/TR/2001/REC-SVG-20010904/DTD/svg10.dtd">
<svg version="1.0" xmlns="http://www.w3.org/2000/svg"
 width="492.000000pt" height="491.000000pt" viewBox="0 0 492.000000 491.000000"
 preserveAspectRatio="xMidYMid meet">

<g transform="translate(0.000000,491.000000) scale(0.100000,-0.100000)"
fill="#000000" stroke="none">
<path d="M1650 3279 c-85 -11 -242 -62 -310 -101 l-55 -31 64 -13 c35 -7 73
-20 85 -27 65 -43 123 -134 146 -228 6 -24 15 -114 21 -199 11 -173 26 -250
64 -336 69 -157 219 -277 400 -319 70 -17 155 -19 155 -5 0 6 -6 10 -13 10 -8
0 -41 14 -74 30 -70 35 -133 107 -164 189 -27 73 -25 114 10 153 24 27 36 32
89 36 89 6 126 -19 265 -181 62 -72 131 -147 152 -166 109 -95 252 -104 421
-26 70 32 189 113 180 122 -3 3 -28 0 -56 -6 -73 -16 -226 -14 -312 4 -164 34
-314 141 -377 268 -43 88 -43 145 0 181 46 39 142 31 189 -16 47 -46 124 -96
163 -108 65 -18 171 -8 232 20 l50 24 -55 6 c-112 14 -221 65 -326 155 -29 25
-115 118 -192 207 -145 168 -185 207 -280 270 -119 80 -288 111 -472 87z m56
-116 c-35 -30 -77 -29 -113 1 l-28 24 60 7 c33 3 69 7 80 8 30 3 31 -14 1 -40z"/>
<path d="M4115 3033 c-79 -40 -80 -41 -73 -49 3 -3 34 9 68 26 34 17 64 30 65
28 2 -2 -14 -43 -35 -91 -21 -48 -35 -87 -29 -87 13 0 119 54 144 74 31 24 10
19 -55 -14 -33 -16 -62 -30 -64 -30 -3 0 11 35 30 78 49 105 48 102 33 102 -8
-1 -45 -17 -84 -37z"/>
<path d="M2410 3025 c71 -77 215 -163 317 -191 67 -17 206 -21 243 -6 22 10
19 11 -25 12 -71 1 -109 17 -213 92 -100 72 -175 102 -282 113 l-65 7 25 -27z"/>
<path d="M2585 2800 c90 -92 197 -146 349 -177 99 -19 230 -13 331 17 77 22
149 26 191 9 16 -5 45 -29 66 -51 36 -39 38 -40 38 -17 0 39 -48 125 -85 154
-85 64 -182 70 -359 22 -113 -31 -255 -36 -343 -13 -63 17 -189 74 -204 92 -6
8 -16 14 -22 14 -6 0 11 -23 38 -50z"/>
<path d="M4273 2770 c-25 -10 -26 -15 -13 -45 8 -18 9 -17 9 8 2 55 74 17 74
-40 0 -34 -44 -73 -81 -73 -15 0 -38 7 -51 16 -20 15 -23 23 -18 63 5 42 4 44
-10 26 -18 -25 -10 -73 17 -100 14 -13 34 -20 61 -20 34 0 46 6 70 33 34 38
37 69 9 104 -10 14 -16 28 -13 32 9 9 -28 6 -54 -4z"/>
<path d="M4303 2467 c-40 -5 -73 -14 -73 -20 0 -6 15 -7 38 -3 20 3 61 9 90
12 28 4 52 11 52 15 0 10 -7 10 -107 -4z"/>
<path d="M3193 2435 c-49 -9 -100 -28 -160 -61 -160 -86 -165 -88 -243 -94
l-75 -6 53 -12 c72 -16 186 -15 256 3 31 8 103 39 158 68 l101 52 102 0 c57 0
101 3 99 7 -9 14 -111 46 -164 51 -30 3 -87 0 -127 -8z"/>
<path d="M3331 2280 c-49 -23 -92 -58 -181 -145 -65 -63 -133 -122 -151 -130
l-34 -14 37 -1 c64 0 189 29 256 60 46 22 91 56 162 125 l98 95 64 1 63 1 -40
19 c-29 13 -63 19 -125 19 -74 0 -93 -4 -149 -30z"/>
<path d="M4334 2275 c-7 -19 -14 -41 -14 -49 0 -9 -9 -20 -19 -26 -38 -20 -65
35 -41 81 6 11 7 19 1 19 -21 0 -28 -67 -11 -101 12 -22 52 -25 68 -6 6 7 17
31 24 53 11 31 18 39 38 39 21 0 26 -5 28 -32 2 -18 -2 -42 -8 -53 -6 -12 -9
-24 -7 -27 10 -9 29 40 29 73 0 42 -17 64 -49 64 -18 0 -28 -9 -39 -35z"/>
<path d="M3577 2185 c-53 -18 -53 -21 -2 -35 27 -8 67 -32 101 -62 67 -58 89
-68 152 -68 80 0 120 20 72 35 -11 4 -46 29 -78 57 -95 84 -161 104 -245 73z"/>
<path d="M4222 2003 c-6 -32 -8 -60 -6 -62 9 -9 168 -31 174 -24 5 4 11 33 14
63 4 37 3 49 -3 35 -5 -11 -10 -33 -10 -48 -1 -31 -19 -42 -56 -33 -23 6 -24
10 -20 54 l4 47 -11 -48 c-10 -42 -14 -48 -32 -43 -12 3 -27 6 -34 6 -10 0
-12 13 -7 55 9 73 0 71 -13 -2z"/>
<path d="M1842 2027 c23 -43 157 -164 234 -209 155 -93 271 -117 453 -93 142
19 209 19 286 1 33 -8 62 -12 65 -10 2 3 -9 16 -25 29 -51 41 -132 66 -250 77
-67 5 -126 17 -153 28 -37 17 -43 23 -40 46 3 28 13 37 63 55 23 8 26 12 15
19 -25 16 -104 11 -164 -10 -133 -45 -258 -32 -408 44 -74 38 -86 41 -76 23z"/>
<path d="M4176 1766 c-12 -14 -27 -41 -33 -60 l-11 -35 88 -30 89 -29 10 30
c20 57 14 94 -20 122 -41 34 -92 35 -123 2z m111 -12 c29 -18 37 -47 23 -88
l-11 -34 -74 25 -75 25 16 36 c8 20 16 37 17 38 36 25 62 25 104 -2z"/>
<path d="M2726 1664 c24 -9 75 -45 119 -86 75 -68 140 -107 178 -108 15 0 12
7 -15 43 -85 111 -124 138 -223 156 -82 15 -109 13 -59 -5z"/>
<path d="M3980 1386 c0 -8 4 -17 9 -20 5 -4 7 3 4 14 -6 23 -13 26 -13 6z"/>
<path d="M4011 1384 c0 -11 3 -14 6 -6 3 7 2 16 -1 19 -3 4 -6 -2 -5 -13z"/>
<path d="M3794 1131 c20 -101 21 -93 -11 -85 -15 4 -38 11 -51 15 -30 12 -49
12 -37 0 6 -4 32 -14 59 -21 27 -8 64 -27 83 -43 38 -34 43 -27 9 13 -15 19
-26 48 -30 84 -4 31 -12 59 -18 62 -7 4 -8 -4 -4 -25z"/>
<path d="M3590 978 c1 -7 7 -44 14 -83 8 -38 12 -72 11 -73 -2 -2 -33 17 -68
42 -36 25 -71 46 -78 46 -7 0 25 -27 71 -59 47 -33 87 -57 89 -55 7 7 -22 184
-30 190 -5 3 -9 -1 -9 -8z"/>
<path d="M3264 804 c52 -140 60 -155 81 -150 39 10 97 37 91 43 -3 3 -23 -2
-46 -11 -22 -9 -44 -16 -49 -16 -5 0 -22 32 -37 71 -15 38 -32 73 -37 76 -7 4
-8 -1 -3 -13z"/>
<path d="M3110 767 c0 -23 44 -179 48 -169 5 16 -27 154 -39 167 -5 5 -9 6 -9
2z"/>
<path d="M2570 717 c-13 -7 -31 -29 -38 -49 -13 -33 -12 -41 4 -74 34 -69 116
-68 149 2 13 29 14 41 5 69 -19 58 -67 79 -120 52z m69 -12 c46 -24 55 -74 20
-119 -41 -52 -119 -21 -119 47 0 36 13 58 45 75 25 14 21 15 54 -3z"/>
<path d="M2852 707 c-68 -72 26 -201 104 -142 22 17 12 20 -18 4 -41 -22 -98
25 -98 80 0 32 39 71 70 71 16 0 32 -4 35 -10 3 -5 11 -10 17 -10 7 0 6 6 -2
15 -20 24 -83 19 -108 -8z"/>
<path d="M2950 639 c-25 -7 -25 -7 4 -8 24 -1 27 -4 23 -24 -4 -12 -2 -29 3
-37 7 -11 10 -3 10 27 0 48 -5 53 -40 42z"/>
</g>
</svg>
